<svg width="26" height="26" viewBox="0 0 26 26" fill="none" xmlns="http://www.w3.org/2000/svg">
<path d="M25.4241 0.595609C25.2417 0.41279 25.025 0.267748 24.7864 0.168786C24.5478 0.0698245 24.2921 0.0188853 24.0338 0.0188853C23.7755 0.0188853 23.5198 0.0698245 23.2812 0.168786C23.0426 0.267748 22.8259 0.41279 22.6435 0.595609L13 10.2194L3.35652 0.575888C3.17394 0.393309 2.95719 0.248479 2.71864 0.149668C2.48009 0.0508569 2.22441 1.92378e-09 1.96621 0C1.708 -1.92378e-09 1.45232 0.0508569 1.21377 0.149668C0.97522 0.248479 0.758467 0.393309 0.575888 0.575888C0.393309 0.758467 0.248479 0.97522 0.149668 1.21377C0.0508569 1.45232 -1.92378e-09 1.708 0 1.96621C1.92378e-09 2.22441 0.0508569 2.48009 0.149668 2.71864C0.248479 2.95719 0.393309 3.17394 0.575888 3.35652L10.2194 13L0.575888 22.6435C0.393309 22.8261 0.248479 23.0428 0.149668 23.2814C0.0508569 23.5199 0 23.7756 0 24.0338C0 24.292 0.0508569 24.5477 0.149668 24.7862C0.248479 25.0248 0.393309 25.2415 0.575888 25.4241C0.758467 25.6067 0.97522 25.7515 1.21377 25.8503C1.45232 25.9491 1.708 26 1.96621 26C2.22441 26 2.48009 25.9491 2.71864 25.8503C2.95719 25.7515 3.17394 25.6067 3.35652 25.4241L13 15.7806L22.6435 25.4241C22.8261 25.6067 23.0428 25.7515 23.2814 25.8503C23.5199 25.9491 23.7756 26 24.0338 26C24.292 26 24.5477 25.9491 24.7862 25.8503C25.0248 25.7515 25.2415 25.6067 25.4241 25.4241C25.6067 25.2415 25.7515 25.0248 25.8503 24.7862C25.9491 24.5477 26 24.292 26 24.0338C26 23.7756 25.9491 23.5199 25.8503 23.2814C25.7515 23.0428 25.6067 22.8261 25.4241 22.6435L15.7806 13L25.4241 3.35652C26.1735 2.60713 26.1735 1.345 25.4241 0.595609Z" fill="#C62127"/>
</svg>
