<svg width="15" height="8" viewBox="0 0 15 8" fill="none" xmlns="http://www.w3.org/2000/svg">
<path d="M14.6054 0.355291C14.4811 0.242666 14.3335 0.153312 14.1709 0.0923468C14.0084 0.0313812 13.8342 0 13.6583 0C13.4823 0 13.3081 0.0313812 13.1456 0.0923468C12.9831 0.153312 12.8355 0.242666 12.7112 0.355291L7.49883 5.06911L2.28648 0.355291C2.03529 0.128132 1.69462 0.000514428 1.33939 0.000514428C0.98416 0.000514428 0.643479 0.128132 0.392296 0.355291C0.141111 0.582451 0 0.890546 0 1.2118C0 1.53305 0.141111 1.84114 0.392296 2.0683L6.55846 7.64471C6.68274 7.75734 6.83036 7.84669 6.99288 7.90765C7.15539 7.96862 7.32961 8 7.50555 8C7.68149 8 7.8557 7.96862 8.01822 7.90765C8.18073 7.84669 8.32835 7.75734 8.45264 7.64471L14.6188 2.0683C15.1293 1.60664 15.1293 0.829104 14.6054 0.355291Z" fill="#C62127"/>
</svg>
