<svg width="67" height="68" viewBox="0 0 67 68" fill="none" xmlns="http://www.w3.org/2000/svg">
<g filter="url(#filter0_d)">
<rect x="8.5" y="4.5" width="50" height="51" rx="2.5" fill="white" stroke="#C62127"/>
<path d="M47.237 36.3338C46.9968 36.545 46.7114 36.7125 46.3972 36.8268C46.083 36.9412 45.7461 37 45.406 37C45.0658 37 44.729 36.9412 44.4148 36.8268C44.1006 36.7125 43.8152 36.545 43.575 36.3338L33.4977 27.4954L23.4205 36.3338C22.9349 36.7598 22.2763 36.999 21.5895 36.999C20.9027 36.999 20.2441 36.7598 19.7584 36.3338C19.2728 35.9079 19 35.3302 19 34.7279C19 34.1255 19.2728 33.5479 19.7584 33.1219L31.6797 22.6662C31.92 22.455 32.2054 22.2875 32.5196 22.1731C32.8338 22.0588 33.1706 22 33.5107 22C33.8509 22 34.1877 22.0588 34.5019 22.1731C34.8161 22.2875 35.1015 22.455 35.3418 22.6662L47.263 33.1219C48.25 33.9875 48.25 35.4454 47.237 36.3338Z" fill="#C62127"/>
</g>
<defs>
<filter id="filter0_d" x="0" y="0" width="67" height="68" filterUnits="userSpaceOnUse" color-interpolation-filters="sRGB">
<feFlood flood-opacity="0" result="BackgroundImageFix"/>
<feColorMatrix in="SourceAlpha" type="matrix" values="0 0 0 0 0 0 0 0 0 0 0 0 0 0 0 0 0 0 127 0"/>
<feOffset dy="4"/>
<feGaussianBlur stdDeviation="4"/>
<feColorMatrix type="matrix" values="0 0 0 0 0 0 0 0 0 0 0 0 0 0 0 0 0 0 0.1 0"/>
<feBlend mode="normal" in2="BackgroundImageFix" result="effect1_dropShadow"/>
<feBlend mode="normal" in="SourceGraphic" in2="effect1_dropShadow" result="shape"/>
</filter>
</defs>
</svg>
